<svg width="80" height="80" viewBox="0 0 80 80" fill="none" xmlns="http://www.w3.org/2000/svg">
<circle cx="40" cy="40" r="40" fill="#141414"/>
<g clip-path="url(#clip0_206_3)">
<path d="M40.1431 19.9858C31.9437 19.9858 25 26.969 25 35.2415C25 43.904 33.0481 52.7627 38.4619 58.989C38.4825 59.014 39.3575 59.9858 40.4356 59.9858H40.5313C41.6094 59.9858 42.4782 59.014 42.5 58.989C47.5806 53.1483 55 43.5183 55 35.2415C55 26.969 49.5837 19.9858 40.1431 19.9858ZM40.6444 57.3121C40.6006 57.3558 40.5368 57.4046 40.4806 57.4453C40.4231 57.4059 40.3606 57.3559 40.3144 57.3121L39.6606 56.5603C34.5281 50.6721 27.5 42.609 27.5 35.2415C27.5 28.3271 33.29 22.4852 40.1431 22.4852C48.6794 22.4852 52.5 28.8915 52.5 35.2415C52.5 40.8346 48.5106 48.2608 40.6444 57.3121ZM40.0437 27.5552C35.9018 27.5552 32.5437 30.9133 32.5437 35.0552C32.5437 39.1971 35.9018 42.5552 40.0437 42.5552C44.1856 42.5552 47.5437 39.1971 47.5437 35.0552C47.5437 30.9133 44.1856 27.5552 40.0437 27.5552ZM40.0437 40.0552C37.2868 40.0552 34.9862 37.7577 34.9862 35.0002C34.9862 32.2433 37.2293 30.0002 39.9862 30.0002C42.7449 30.0002 44.9862 32.2433 44.9862 35.0002C44.9874 37.7577 42.8025 40.0552 40.0437 40.0552Z" fill="#B8A274"/>
</g>
<defs>
<clipPath id="clip0_206_3">
<rect width="40" height="40" fill="white" transform="translate(20 20)"/>
</clipPath>
</defs>
</svg>
