<svg width="80" height="80" viewBox="0 0 80 80" fill="none" xmlns="http://www.w3.org/2000/svg">
<circle cx="40" cy="40" r="40" fill="#141414"/>
<path d="M55 26.6667C55 42.3167 42.3167 55 26.6667 55C25.75 55 25 54.25 25 53.3333V47.5167C25 46.6 25.75 45.85 26.6667 45.85C28.7333 45.85 30.75 45.5167 32.6167 44.9C32.7833 44.8333 32.9667 44.8167 33.1333 44.8167C33.5667 44.8167 33.9833 44.9833 34.3167 45.3L37.9833 48.9667C42.7 46.55 46.5667 42.7 48.9667 37.9833L45.3 34.3167C44.8333 33.85 44.7 33.2 44.8833 32.6167C45.5 30.75 45.8333 28.75 45.8333 26.6667C45.8333 25.75 46.5833 25 47.5 25H53.3333C54.25 25 55 25.75 55 26.6667ZM32.6667 48.3667C31.25 48.7667 29.8 49.0167 28.3333 49.1167V51.6C30.5333 51.45 32.65 51.0167 34.6667 50.35L32.6667 48.3667ZM49.1 28.3333C49 29.8167 48.75 31.2667 48.35 32.65L50.35 34.65C51.0333 32.65 51.4667 30.5333 51.6167 28.3333H49.1Z" fill="#B8A274"/>
</svg>
